# xmcd
#
# Track frame offsets:
#	150
#	12006
#	31855
#	43905
#	61061
#	77017
#	88844
#	111158
#	127454
#	144234
#	159074
#	174158
#	192629
#	204443
#	221434
#	233326
#
# Disc length: 3321 seconds
#
# Revision: 1
# Processed by: cddbd v1.5.2PL0 Copyright (c) Steve Scherf et al.
# Submitted via: audiograbber 1.83.01
#
DISCID=cb0cf710
DTITLE=Various Artist - All The... Country [Disc 1]
DYEAR=2012
DGENRE=Country
TTITLE0=The Everly Brothers - I Walk The Line
TTITLE1=John Michael Montgomery - I Swear
TTITLE2=Roy Orbison - Hound Dog Man
TTITLE3=Gram Parsons - Hearts On Fire
TTITLE4=Randy Travis - Forever And Ever, Amen
TTITLE5=Willie Nelson - Shotgun Willie
TTITLE6=Beth Nielsen Chapman - Beyond The Blue
TTITLE7=Tracy Lawrence - Sticks And Stones
TTITLE8=Gloriana - Wild At Heart
TTITLE9=Mandy Barnett - Three Days
TTITLE10=Confederate Railroad - Queen Of Memphis
TTITLE11=Little Texas - God Blessed Texas
TTITLE12=Gene Parsons - Drunkard's Dream
TTITLE13=Southern Pacific - New Shade Of Blue
TTITLE14=The McCarters - Timeless And True Love
TTITLE15=Carlene Carter - Do It In A Heartbeat
EXTD=
EXTT0=
EXTT1=
EXTT2=
EXTT3=
EXTT4=
EXTT5=
EXTT6=
EXTT7=
EXTT8=
EXTT9=
EXTT10=
EXTT11=
EXTT12=
EXTT13=
EXTT14=
EXTT15=
PLAYORDER=
